<?xml version="1.0" encoding="utf-8"?>
<!-- Generator: Adobe Illustrator 13.0.0, SVG Export Plug-In . SVG Version: 6.00 Build 14948)  -->
<!DOCTYPE svg PUBLIC "-//W3C//DTD SVG 1.1//EN" "http://www.w3.org/Graphics/SVG/1.1/DTD/svg11.dtd">
<svg version="1.1" id="Layer_1" xmlns="http://www.w3.org/2000/svg" xmlns:xlink="http://www.w3.org/1999/xlink" x="0px" y="0px"
	 width="2732px" height="2732px" viewBox="0 0 2732 2732" enable-background="new 0 0 2732 2732" xml:space="preserve">
<g id="Layer_1_1_">
	<path fill="#464646" d="M782.211,2182.586l273.454,514.359l303.862-526.27L1663.39,2697l273.454-514.359l582.146,20.363
		l-455.959-789.789l68.282-30.354l-25.633-245.735l144.96-200.014l-144.96-200.014l25.688-245.735l-225.701-100.391
		l-100.391-225.701l-245.735,25.633L1359.527,46l-200.014,144.96l-245.735-25.688L813.388,390.973L587.687,491.364l25.633,245.735
		L468.414,937.113l144.96,200.014l-25.688,245.735l68.336,30.408l-456.013,789.68L782.211,2182.586z M1962.202,1458.113
		l362.702,628.254l-452.828-15.863l-212.693,400.082l-236.514-409.688l213.35-369.564l52.419,5.49l116.584,12.184l100.391-225.756
		L1962.202,1458.113z M705.148,1314.91l21.736-208.191L603.989,937.113l122.895-169.605l-21.736-208.191l191.396-85.188
		l85.187-191.396l208.191,21.736l169.605-122.896l169.605,122.896l208.191-21.736l85.188,191.396l191.396,85.188l-21.736,208.191
		l122.896,169.605l-122.895,169.605l21.735,208.191l-6.037,2.689l0,0l-185.358,82.499l-85.188,191.395l-208.191-21.736l0,0l0,0
		l-169.605,122.896l-169.605-122.896l-208.191,21.736l-85.187-191.395l-185.357-82.499l0,0L705.148,1314.91z M913.779,1708.953
		l245.735-25.633l200.014,144.906l122.018-88.426l-185.359,321.098l0,0l-236.514,409.688l-212.693-400.082l-452.774,15.863
		l362.703-628.254l56.535,25.139L913.779,1708.953z"/>
</g>
<circle fill="none" stroke="#464646" stroke-width="100" cx="1361.857" cy="935.374" r="545.523"/>
<text transform="matrix(1 0 0 1 954.9512 1147.4697)" fill="#464646" font-family="'OpenSans-Bold'" font-size="660">#1</text>
</svg>
